<?xml version="1.0" encoding="utf-8"?>
<!-- Generator: Adobe Illustrator 22.0.1,  test SVG Export Plug-In . SVG Version: 6.00 Build 0)  -->
<svg version="1.1" id="FK_x5F_Melitta_Logo" xmlns="http://www.w3.org/2000/svg" xmlns:xlink="http://www.w3.org/1999/xlink"
	 x="0px" y="0px" viewBox="0 0 175.1 111.9" style="enable-background:new 0 0 175.1 111.9;" xml:space="preserve">
<style type="text/css">
	.filter{opacity: 0.7; filter:url(#AI_Schatten_1);}
	.st0{fill:#FFFFFF;}
	.st1{fill:#CF0A2C;}
</style>
<filter  filterUnits="objectBoundingBox" id="AI_Schatten_1">
	<feGaussianBlur  in="SourceAlpha" result="blur" stdDeviation="3"></feGaussianBlur>
	<feOffset  dx="2" dy="2" in="blur" result="offsetBlurredAlpha"></feOffset>
	<feMerge>
		<feMergeNode  in="offsetBlurredAlpha"></feMergeNode>
		<feMergeNode  in="SourceGraphic"></feMergeNode>
	</feMerge>
</filter>
<g id="shadow" class="filter">
	<path class="st0" d="M153.6,16h-2.1H23.6h-2.1v2.1v74.8v3l2.8-1l0.8-0.3c19.1-6.9,40.6-10.5,62.4-10.5c21.6,0,43.8,3.7,62.4,10.5
		l0.8,0.3l2.9,1v-3V18.1L153.6,16L153.6,16z"/>
</g>
<g id="_x39_2_x2C_5_x25__vom_bisherigen_Stand">
	<g>
		<path class="st1" d="M150.3,93.6c-18.7-6.8-41-10.6-62.7-10.6C65.7,83,44,86.7,24.9,93.6l-2.3,0.8V17.1h130v77.3L150.3,93.6z"/>
		<path class="st0" d="M151.5,18.1v74.8l-0.8-0.3C131.8,85.7,109.4,82,87.6,82c-22,0-43.8,3.7-63.1,10.6l-0.8,0.3V18.1H151.5
			 M153.6,16h-2.1H23.6h-2.1v2.1v74.8v3l2.8-1l0.8-0.3c19.1-6.9,40.6-10.5,62.4-10.5c21.6,0,43.8,3.7,62.4,10.5l0.8,0.3l2.9,1v-3
			V18.1L153.6,16L153.6,16z"/>
	</g>
	<path id="R_x5F_90_x25__2_" class="st0" d="M137.8,46.4c0.8,0,1.9,0.1,1.9-1c0-0.8-0.7-1-1.4-1h-1.6v1.9h1.1V46.4z M140.4,49.4
		h-0.8l-1.6-2.5h-1.2v2.5h-0.7v-5.5h2.4c1.5,0,1.9,0.5,1.9,1.4c0,1.1-0.8,1.5-1.7,1.5L140.4,49.4z M142,46.7c0-2.4-1.7-4.2-4.1-4.2
		c-2.4,0-4.1,1.9-4.1,4.2c0,2.4,1.7,4.3,4.1,4.3C140.3,50.9,142,49.1,142,46.7 M133,46.7c0-2.7,2.2-4.9,4.9-4.9s4.9,2.2,4.9,4.9
		s-2.2,4.9-4.9,4.9C135.2,51.6,133,49.4,133,46.7"/>
	<path id="Melitta_2_" class="st0" d="M120.6,63.7c-0.2-1.4,1.2-2.7,2.3-3.2c1.5-0.8,2.9-0.3,2.9,0.7c0,0.8-1.3,2.5-2.9,3.1
		C122,64.7,120.7,64.7,120.6,63.7 M82.2,58.8c-1.7,1.6-4.1,3.6-4.1,3.6s0.2-2.1,2.4-4.6c1.2-1.4,2.8-2,3.4-1.8
		C84.7,56.3,83,58,82.2,58.8 M106.9,42c-3.5,3.3-6.5,6.7-11.6,10.8c1.8-3.3,5.8-8.4,9.3-11.7c2.8-2.7,4.9-3.7,5.3-3.3
		C110.4,38.3,108,40.9,106.9,42 M115.4,44.1c-4.6,5.6-9.9,15.3-9.9,15.3s-0.7,0.2-1.8,0.5c-1.5,0.3,0.5,1.6,0.2,2.6
		c-0.5,1.9-0.8,2.3-1.1,3.7c-0.3,1,1.9,1.3,2.3,0.4c1.9-4.4,2.8-5.8,2.8-5.8s5.7-4.1,8.3-5.8c-0.9,1.7-3.1,5.1-3.1,5.1
		s-0.6,0-1.8,0.2c-0.3,0-0.6,0.7-0.5,0.8c0.7,0.9,1.1,1.2,0.7,2c-0.6,1.3-0.7,1.9-1.3,3.6c-0.6,1.5,2.3,1.2,2.9-0.2
		c1.6-3.8,2.3-4.6,2.3-4.6l3.5-0.8c0,0-0.6,0.5-1.2,1.5c-1,1.5-1.6,3.8,1.2,4.5c1.7,0.4,3.8-0.8,5.1-1.8c-0.6,1.9,0.3,3.6,1.8,4.3
		c3.4,1.6,8.7-3,10.1-5c-2.1,1.1-5.6,3.1-7.8,3.1c-0.6,0-1.3-0.2-1.5-0.6c-0.3-0.4-0.4-0.8-0.3-1.3c0.1-2.7,3.8-6.9,4.4-7.4
		c0.3-0.6-0.3-1.4-1.5-0.8c-0.9,0.4-1.5,1.1-1.5,1.1s-1-1-2.5-1.1c-1.7-0.1-3.3,0.7-4.3,1.4c0,0-2.8,0.5-4.4,0.7
		c3.6-7.1,8.6-12.7,9.2-13.6c0.2-0.4,0.4-0.8-0.1-0.9c-0.6-0.1-1.4,0.1-2,0.5c-2.5,2.1-6,7-6,7s-5.3,3.6-7.9,5.2
		c2.8-5.4,5.7-10.2,9.8-15.6c0.2-0.3,0.4-0.5,0.1-0.5c-0.4-0.1-1.5,0.1-1.8,0.3C116.8,42.5,116.2,43.2,115.4,44.1 M104.6,53.9
		c-0.8-1.3-2.6-0.8-3.5,1.1c-0.5,1-0.3,2.3,0.9,2.5C103.7,57.7,105.3,55.1,104.6,53.9 M64.6,32.6C57,40.6,49.5,50,43.1,59.2
		c-2.7,3.8-5.5,8.5-7.3,11.9c-0.1,0.2,0.5,0.6,0.8,0.2c5.3-7.5,10.3-14.4,15.6-21c3.8-4.7,10.1-12,14.5-16.3
		c-2.3,3.5-7.1,12.1-10.4,17.8c-3.3,5.5-7,11.9-7.4,13c-0.3,0.7,0.8,1.9,1.6,1c3.1-3.8,5-6.3,7.7-9.6c1.9-2.4,6.5-7.3,9-9.4
		c-0.7,1.4-4.3,6.5-6.3,10.4c-1.3,2.4-3.9,6.9-3.9,7.6c-0.1,0.6,0.9,2,1.6,1.5c2.8-2.9,10.6-11.3,14.2-14.4c-4,5.1-8.3,13.5-8,16.1
		c0.1,0.9,0.8,3.5,3.9,2.7c2.7-0.7,7.5-4.6,7.5-4.6c0.3,0.6,1.5,1.4,2.4,1.4c2.5-0.1,5.1-1.9,9-4.5c-1,2.7-1.6,4.3-1.5,5.1
		c0.1,0.6,0.5,1.2,1.6,1.1c0.3,0,1.1,0,3.5-1.5c1.7-1.2,5.5-3.8,6.2-4.3c-0.7,1.2-1.9,3-1.7,3.6c0.3,0.8,1.9,0.6,2.8-0.2
		c0.5-0.4,0.9-1.4,1.8-3c0.9-1.8,1.6-3.5,0.9-3.9c-1-0.6-2.8,0.3-4.7,1.5c-3,2-6.3,4.8-6.9,4.3c-1.1,0.1,3.2-7.2,3.2-7.2
		c7.9-7.4,13.6-11.5,17.4-16c0.6-0.7,2.5-2.7,4-5.1c0.7-1.1,0.9-1.6,1-2.3c0.1-0.7-0.7-0.8-1.2-1c-1.4-0.5-5.2,1.3-7.2,2.7
		c-3.7,2.6-5.4,4.1-8.4,7.7c-3.1,3.8-4.5,5.8-8.1,12.8c-0.1,0.3-3,2.7-4.5,3.7c-1.7,1.2-6.2,4.7-7.3,3.4c2.4-1.8,6.4-4.8,8.1-7.2
		c1-1.4,1.2-2.6,0.2-3.1c-1.3-0.7-3.9-0.4-6.8,1.3c-2.8,1.7-4.7,4.9-5.3,8.6c-0.1,0.3-5.5,4.8-6.9,4.3c-0.8-0.3-0.2-2.6,3.4-9.1
		c3.5-6.4,8.5-13.2,9-13.9c1-1.5-0.8-1.5-1.5-1.4c-0.3,0.1-2.9,1.9-4.6,3.3c-3.2,2.8-7.7,7.1-10,9.5c2.7-4.6,4.8-7.8,6.5-10.7
		c2.4-4.3,4.8-7.2,3.7-7.7c-1.7-0.4-3.6,1.6-6.6,4.5c-2.6,2.6-6.2,6.5-8.2,8.3c1.7-2.3,4.7-7.1,6.9-10.8c4.3-7,7-12.2,6.3-12.7
		C71.2,26.2,67.7,29.3,64.6,32.6"/>
</g>
</svg>
