<?xml version="1.0" encoding="UTF-8" standalone="no"?>
<svg
   width="115"
   height="35.450901"
   viewBox="0 0 115 35.450901"
   version="1.1"
   id="svg4"
   xmlns="http://www.w3.org/2000/svg"
   xmlns:svg="http://www.w3.org/2000/svg">
  <g
     clip-path="url(#clip0_6906_36932)"
     id="g4"
     transform="translate(-0.5,-0.5)">
    <path
       d="m 70.2508,8.52616 c 1.0813,0 2.0854,0.83758 2.0854,2.35414 h -4.1408 c 0,-1.5125 1.0041,-2.35414 2.0554,-2.35414 z m -8.0801,3.60644 c 0,4.314 3.4801,7.6969 8.728,7.6969 2.978,0 4.9133,-0.4188 6.6297,-1.2198 l 0.0343,-3.696 c -1.7464,0.8295 -3.9649,1.2727 -5.5311,1.2727 -2.3472,0 -3.9435,-1.4028 -3.8362,-2.8909 h 9.4789 c 0.3476,-5.07429 -3.5444,-8.58726 -7.5651,-8.58726 -4.5528,0 -7.9385,3.20803 -7.9385,7.42436 z m 16.2545,0.0936 c 0,3.4601 2.9909,7.6073 8.6379,7.6073 1.755,0 3.2569,-0.3984 4.497,-1.049 v -4.6189 c 0,0 -2.2013,0.8295 -3.4715,0.8295 -2.3429,0 -3.5057,-1.3865 -3.5057,-2.7974 0,-1.3784 1.1543,-2.76484 3.4972,-2.76484 1.3001,0 3.4757,0.85384 3.4757,0.85384 V 5.66781 C 90.3243,5.02945 88.8224,4.63912 87.0931,4.63912 81.386,4.64319 78.4252,8.8067 78.4252,12.2262 Z m 19.8289,0.0244 c 0,-1.8297 1.2187,-2.84213 2.4849,-2.84213 1.291,0 2.501,1.01243 2.501,2.84213 0,1.8825 -1.24,2.8095 -2.501,2.8095 -1.2405,0 -2.4849,-0.927 -2.4849,-2.8095 z m -6.1576,-0.0244 c 0,3.4601 2.9951,7.6073 8.6425,7.6073 5.638,0 8.659,-4.1188 8.659,-7.6358 0,-3.49671 -3.021,-7.55451 -8.642,-7.55451 -5.6901,0 -8.6595,4.16351 -8.6595,7.58301 z m -40.3659,3.1633 c 0,-0.9027 0.6094,-1.1914 1.7765,-1.4516 0.7166,-0.1545 1.4289,-0.3375 2.0726,-0.6465 v 1.2401 c -0.0773,1.3987 -1.0127,2.0981 -2.2013,2.0981 -0.9569,0 -1.6478,-0.614 -1.6478,-1.2401 z M 47.5039,7.27385 c -0.5149,0.84978 -0.7166,1.41494 -0.7595,2.4111 h 4.8618 c 0.3561,-0.97583 1.1886,-1.5044 2.0554,-1.5044 0.7338,0 1.4289,0.36187 1.8623,1.05714 0.073,0.10165 0.103,0.22363 0.103,0.34968 0,0.90263 -0.6222,1.07743 -1.3774,1.21163 -2.8235,0.5245 -8.1316,0.3537 -8.1316,4.8263 0,2.7323 2.2657,4.2082 5.0635,4.2082 1.7893,0 3.3599,-0.3009 4.527,-1.6101 l 0.133,0.1626 c 0.5236,0.4636 1.429,1.1792 4.2954,1.1792 h 1.9438 v -4.0009 c -0.7552,-0.1017 -1.0384,-0.3985 -1.0127,-2.0005 l -0.0043,-3.2974 c 0,-4.29365 -4.1065,-5.62728 -6.9729,-5.62728 -1.4032,-0.00406 -5.2093,0.33341 -6.5868,2.63473 z M 10.6181,9.48572 V 12.7547 L 23.5556,6.26143 c 0.7338,1.1222 1.1586,2.44769 1.1586,3.87487 0,4.0496 -3.4714,7.343 -7.7539,7.343 -1.2015,0 -2.3429,-0.2642 -3.3556,-0.7237 L 11,18.0445 l 0.2189,0.1423 c 1.6434,1.049 3.6173,1.6589 5.7371,1.6589 5.6642,0 10.247,-4.3465 10.247,-9.7054 0,-2.89085 -1.3216,-5.48898 -3.4371,-7.26579 z M 6.70898,10.1322 c 0,2.8787 1.32594,5.4687 3.43282,7.2496 L 23.3711,10.7177 23.384,7.44462 10.3607,13.9948 10.365,13.9867 C 9.63118,12.8645 9.20637,11.5471 9.20637,10.1322 c 0,-4.06187 3.47143,-7.35121 7.74963,-7.35121 1.2058,0 2.33,0.25209 3.3427,0.71561 L 22.912,2.2077 22.6888,2.06539 C 21.0539,1.02044 19.0801,0.410553 16.956,0.410553 11.3004,0.410553 6.70898,4.76517 6.70898,10.1322 Z M 31.773,6.28989 c 0,0.79286 0,3.01286 3.2311,4.84251 2.5661,1.4475 3.4071,1.911 3.4071,2.7039 0,0.3822 -0.3132,1.1791 -2.1112,1.1791 -1.6778,0 -3.2397,-0.6587 -4.6214,-1.5573 v 5.0865 c 0.811,0.4147 2.5102,1.2889 6.1233,1.2889 7.0759,0 7.6552,-4.7043 7.6552,-5.6394 0,-2.9763 -2.7162,-4.4563 -4.1923,-5.24509 -1.8151,-0.98802 -2.9694,-1.58978 -2.9694,-2.51274 0,-0.52451 0.4891,-1.20352 1.6434,-1.20352 1.7379,0 3.5788,1.44747 4.6558,2.40297 V 2.57363 c -1.2487,-1.0978 -3.3513,-2.163077 -5.956,-2.163077 -3.982,0 -6.8656,2.268797 -6.8656,5.879337 z"
       fill="#28201a"
       id="path1" />
    <path
       d="M 38.772,34.7352 H 0.405762 v 1.2157 H 38.772 Z"
       fill="#009146"
       id="path2" />
    <path
       d="M 77.1382,34.7352 H 38.772 v 1.2157 h 38.3662 z"
       fill="#f3f3f3"
       id="path3" />
    <path
       d="M 115.5,34.7352 H 77.1338 v 1.2157 H 115.5 Z"
       fill="#d7242d"
       id="path4" />
  </g>
  <defs
     id="defs4">
    <clipPath
       id="clip0_6906_36932">
      <rect
         width="115"
         height="37"
         fill="#ffffff"
         transform="translate(0.5,0.5)"
         id="rect4"
         x="0"
         y="0" />
    </clipPath>
  </defs>
</svg>
